<?xml version="1.0" encoding="utf-8"?>
<!-- Generator: Adobe Illustrator 25.0.0, SVG Export Plug-In . SVG Version: 6.00 Build 0)  -->
<svg version="1.1" id="Calque_1" xmlns="http://www.w3.org/2000/svg" xmlns:xlink="http://www.w3.org/1999/xlink" x="0px" y="0px"
	 viewBox="0 0 617.8 210.51" style="enable-background:new 0 0 617.8 210.51;" xml:space="preserve">
<style type="text/css">
	.st0{fill:#FFFFFF;}
	.st1{fill:#5E92DB;}
	.st2{fill:#305ACA;}
	.st3{fill:#364BAC;}
	.st4{fill:#99B4D3;}
	.st5{fill:#1E6CF2;}
	.st6{fill:#2A6FAB;}
	.st7{fill:#149597;}
	.st8{fill:#3074E1;}
	.st9{fill:#306AD9;}
	.st10{fill:#6794D9;}
</style>
<path class="st0" d="M-177.92-236.02c-0.33,0.33-0.67,0.67-1,1C-178.58-235.35-178.25-235.68-177.92-236.02z"/>
<path class="st1" d="M313.54,91.15c0-4.26,0-7.47,0-11.3c12.03,0.72,23.71-1.91,35.06,2.16c9.92,3.56,15.41,11.67,15.52,22.68
	c0.11,10.34-5.18,18.21-14.89,22.03c-1.85,0.73-3.8,1.52-5.74,1.62c-9.76,0.49-19.73,0.06-29.94,0.43l0-23.57c4.65,0,8.89,0,13.81,0
	c0.17,2.7,0.36,5.28,0.48,7.87c0.2,4.41,0.48,4.78,5.01,4.75c2.32-0.02,4.68-0.19,6.93-0.69c6.07-1.34,9.98-6.43,9.97-12.65
	c-0.01-6.75-3.7-11.54-10.35-12.66c-3.74-0.63-7.62-0.55-11.44-0.63C323.32,91.07,318.68,91.15,313.54,91.15z"/>
<path class="st2" d="M252.55,128.69c-4.56,0-8.35,0.34-12.02-0.18c-1.27-0.18-2.63-2.33-3.28-3.86c-3.23-7.66-6.21-15.43-9.32-23.14
	c-0.85-2.11-1.81-4.17-3.09-7.08c-1.03,1.78-1.68,2.65-2.08,3.62c-3.3,8.17-6.62,16.33-9.8,24.54c-2.38,6.14-2.28,6.22-8.93,6.28
	c-2.09,0.02-4.18-0.23-6.7-0.38c0.33-1.49,0.38-2.46,0.74-3.29c5.85-13.41,11.8-26.78,17.57-40.23c1.5-3.51,3.63-5.47,7.58-4.92
	c0.16,0.02,0.33,0,0.5,0c7.59,0.19,7.01-1.59,11,7.22c5.07,11.21,10.01,22.49,14.95,33.75
	C250.64,123.25,251.39,125.58,252.55,128.69z"/>
<path class="st3" d="M175.69,79.88c6.26-0.42,11.81,1.61,16.9,5.02c3.38,2.27,3.42,3.74,0.48,6.68c-3.45,3.45-4.22,3.54-9.05,1.06
	c-7.7-3.95-15.35-2.33-19.3,4.08c-3.19,5.18-2.38,13.96,1.67,18.21c3.78,3.96,12.09,4.77,17.7,1.73c4.56-2.47,6.03-2.24,9.38,1.45
	c2.24,2.47,2.24,3.57-0.29,5.78c-4.73,4.13-9.21,4.87-16.55,4.87c-13.68,0-22.26-5.4-25.76-15.02c-6.27-15.1,4.54-32.12,20.84-33.59
	C173.04,80.03,174.37,79.97,175.69,79.88z"/>
<path class="st4" d="M371.12,128.75c0-16.39,0-32.6,0-48.9c4.72,0,9.58,0,14.53,0c0,0-0.27,23.59-0.16,32.57
	c0.06,5.06,0.42,5.28,5.46,5.33c5.32,0.06,12.11,0.09,17.43,0.16c0,0,0,7.02,0,10.83C396.06,128.75,383.89,128.75,371.12,128.75z"/>
<path class="st5" d="M296.84,128.75c-3.95,0-5.37-0.55-7.45-3.07c-10.04-12.19-20.16-24.3-30.19-36.49
	c-0.92-1.12-1.69-2.54-1.99-3.94c-0.81-3.77,0.42-4.92,4.29-5.34c4.92-0.53,8.29,1.14,11.41,5.14c8.77,11.28,18,22.21,27.04,33.28
	c0.84,1.03,1.66,2.14,2.33,3.21c1.39,2.22,1.31,1.51,1.15,5.52C303.35,129.04,297.68,128.75,296.84,128.75z"/>
<path class="st6" d="M116.98,134.88c1.04-3.28,16.37-47.41,22.09-63.73h11.22c-0.32,1.36-15.16,45.38-21.59,63.73H116.98z"/>
<path class="st7" d="M115.01,86.41v5.37c0.19,3.27-1.01,5.32-4.31,6.31l-16.74,6.37c2.47,1.09,11.89,4.63,15.01,5.77
	c6.41,2.35,6.04,4.36,6.04,12.37c-1.52-0.35-30.41-11.03-30.41-11.03c-3.45-1.18-4.6-3.17-4.52-6.65c0.13-5.26,0.03-5.58,4.25-7.22
	C92.69,94.45,112.95,86.85,115.01,86.41z"/>
<path class="st8" d="M460.12,86.41v5.37c-0.19,3.27,1.01,5.32,4.31,6.31l16.74,6.37c-2.47,1.09-11.89,4.63-15.01,5.77
	c-6.41,2.35-6.04,4.36-6.04,12.37c1.52-0.35,30.41-11.03,30.41-11.03c3.45-1.18,4.6-3.17,4.52-6.65c-0.13-5.26-0.03-5.58-4.25-7.22
	C482.44,94.45,462.17,86.85,460.12,86.41z"/>
<path class="st9" d="M291.1,89.46c-1.19-1.8-0.73-8.44-0.68-8.71c0.2-1.1,7.18-0.9,10.7-0.89c2.42,0.01,2.69,2.4,2.7,4.31
	c0.03,6.23,0.01,14.93,0.01,21.16C303.22,105.52,294.34,94.38,291.1,89.46z"/>
<path class="st9" d="M270.25,120.76c0.94,1.41,1.01,4.17,0.29,5.78c-1.17,3-6.45,2.05-9.8,2.21c-3.02,0.14-3.66-0.6-3.65-3.22
	c0.04-6.63,0.01-15.22,0.01-21.85C257.59,103.44,266.62,115.31,270.25,120.76z"/>
<rect x="414.17" y="98.75" class="st10" width="38.4" height="10.38"/>
<rect x="414.17" y="118.44" class="st10" width="38.4" height="10.38"/>
<rect x="414.17" y="80.18" class="st10" width="38.4" height="10.38"/>
</svg>
